<svg width="13" height="13" viewBox="0 0 12 12" fill="none" xmlns="http://www.w3.org/2000/svg">
    <path d="M1.94789 11.9801C1.59727 11.9801 1.24805 11.883 0.937031 11.6909C0.365391 11.3376 0.0239062 10.7257 0.0234375 10.0537V1.92656C0.0239062 1.25437 0.365391 0.642416 0.937031 0.289213C1.50867 -0.0639897 2.20875 -0.0956303 2.80969 0.204838L10.9369 4.26843C11.5929 4.59726 12 5.25679 12 5.99015C12 6.72351 11.5927 7.38304 10.9371 7.71163L2.80992 11.7752C2.53594 11.9121 2.24156 11.9801 1.94813 11.9801H1.94789ZM1.94859 1.03218C1.7857 1.03218 1.62352 1.07718 1.47914 1.16648C1.21359 1.33054 1.05516 1.61484 1.05492 1.92679V10.0535C1.05492 10.3652 1.21359 10.6495 1.47914 10.8136C1.74469 10.9776 2.06977 10.9922 2.34891 10.8527L10.4759 6.78937C10.7798 6.63702 10.969 6.3307 10.969 5.99015C10.969 5.6496 10.7798 5.34328 10.4754 5.1907L2.34867 1.12734C2.22164 1.06382 2.08477 1.03218 1.94859 1.03218Z"
          fill="#303030"/>
</svg>
