<svg width="16" height="16" viewBox="0 0 12 12" fill="none" xmlns="http://www.w3.org/2000/svg">
    <path fill-rule="evenodd" clip-rule="evenodd"
          d="M11.8145 9.3512C11.8145 10.8096 10.6322 11.9919 9.17376 11.9919L3.62704 11.9919C2.16862 11.9919 0.986335 10.8096 0.986335 9.35119V8.52991C0.986335 8.24514 1.21719 8.01429 1.50196 8.01429C1.78673 8.01429 2.01759 8.24514 2.01759 8.52991L2.01758 9.35119C2.01758 10.2401 2.73816 10.9606 3.62704 10.9606L9.17376 10.9606C10.0626 10.9606 10.7832 10.2401 10.7832 9.3512L10.7832 2.60916C10.7832 1.72029 10.0626 0.99971 9.17376 0.99971H8.21254C7.92777 0.99971 7.69691 0.768857 7.69691 0.484085C7.69691 0.199313 7.92777 -0.0315399 8.21254 -0.0315399L9.17376 -0.0315398C10.6322 -0.0315397 11.8145 1.15074 11.8145 2.60916L11.8145 9.3512ZM4.06786 -0.0088923C4.28666 -0.00858223 4.50004 0.0592802 4.67883 0.185423C4.85762 0.311565 4.9931 0.489835 5.06676 0.695874L5.19731 1.06337C5.19871 1.0672 5.2009 1.0707 5.20372 1.07365C5.20654 1.07659 5.20995 1.07892 5.21371 1.08048C5.21741 1.08211 5.2214 1.08295 5.22543 1.08295C5.22947 1.08295 5.23346 1.08211 5.23715 1.08048L5.58871 0.913139C5.78662 0.818632 6.00897 0.787848 6.2251 0.825028C6.44124 0.862209 6.64052 0.965523 6.79547 1.12073C6.95042 1.27593 7.0534 1.47539 7.09022 1.69158C7.12705 1.90778 7.09589 2.13008 7.00106 2.32783L6.83465 2.67939C6.83307 2.68309 6.83225 2.68708 6.83225 2.69111C6.83225 2.69514 6.83307 2.69912 6.83465 2.70283C6.83614 2.70655 6.83842 2.7099 6.84134 2.71265C6.84425 2.7154 6.84773 2.71749 6.85153 2.71876L7.21832 2.84814C7.42471 2.92139 7.60335 3.05676 7.72968 3.23565C7.85601 3.41454 7.92383 3.62816 7.92383 3.84716C7.92383 4.06616 7.85601 4.27979 7.72968 4.45868C7.60334 4.63756 7.42471 4.77294 7.21832 4.84619L6.85129 4.97697C6.84749 4.97824 6.84402 4.98033 6.8411 4.98308C6.83819 4.98583 6.83591 4.98918 6.83442 4.99291C6.83276 4.99659 6.83191 5.00058 6.83191 5.00462C6.83191 5.00866 6.83276 5.01266 6.83442 5.01634L7.00153 5.36791C7.09602 5.56577 7.12681 5.78807 7.08967 6.00417C7.05252 6.22027 6.94927 6.41953 6.79413 6.57449C6.63899 6.72944 6.43961 6.83247 6.22347 6.86936C6.00733 6.90626 5.78506 6.8752 5.58731 6.78048L5.23575 6.61408C5.23206 6.61242 5.22807 6.61157 5.22403 6.61157C5.21999 6.61157 5.21599 6.61242 5.21231 6.61408C5.20854 6.61564 5.20514 6.61797 5.20231 6.62091C5.19949 6.62386 5.19731 6.62736 5.1959 6.63119L5.06559 6.99798C4.99224 7.20421 4.85686 7.38267 4.67803 7.50888C4.49919 7.63508 4.28568 7.70283 4.0668 7.70283C3.84792 7.70283 3.63441 7.63508 3.45557 7.50888C3.27674 7.38267 3.14136 7.20421 3.06801 6.99798L2.93723 6.63048C2.93588 6.6267 2.93377 6.62323 2.93103 6.62028C2.92829 6.61734 2.92497 6.61499 2.92129 6.61337C2.91761 6.61172 2.91361 6.61086 2.90957 6.61086C2.90553 6.61086 2.90154 6.61172 2.89785 6.61337L2.54629 6.78095C2.34846 6.87536 2.12622 6.90611 1.91019 6.86898C1.69415 6.83185 1.49494 6.72866 1.33997 6.57362C1.18501 6.41858 1.08192 6.21932 1.0449 6.00326C1.00788 5.78721 1.03874 5.56499 1.13325 5.3672L1.30082 5.01564C1.30242 5.01194 1.30325 5.00795 1.30325 5.00392C1.30325 4.99989 1.30242 4.9959 1.30082 4.9922C1.2993 4.98848 1.29701 4.98511 1.2941 4.98233C1.29119 4.97954 1.28773 4.9774 1.28395 4.97603L0.916449 4.84525C0.710062 4.772 0.531427 4.63663 0.405096 4.45774C0.278765 4.27885 0.210938 4.06522 0.210938 3.84622C0.210938 3.62722 0.278765 3.4136 0.405096 3.23471C0.531427 3.05582 0.710062 2.92045 0.916449 2.8472L1.28348 2.71665C1.28728 2.71533 1.29077 2.71322 1.2937 2.71046C1.29663 2.70771 1.29895 2.70436 1.3005 2.70064C1.30205 2.69692 1.30279 2.69292 1.30269 2.68889C1.30258 2.68487 1.30163 2.68091 1.29989 2.67728L1.13231 2.32572C1.03789 2.12787 1.00712 1.90561 1.04424 1.68955C1.08135 1.47349 1.18453 1.27425 1.33955 1.11925C1.49458 0.964245 1.69384 0.861106 1.90991 0.824027C2.12598 0.786949 2.34822 0.817753 2.54606 0.912201L2.89762 1.07908C2.90125 1.08082 2.90521 1.08179 2.90924 1.08191C2.91327 1.08204 2.91728 1.08131 2.92102 1.07979C2.92475 1.07826 2.92812 1.07597 2.93091 1.07307C2.93371 1.07016 2.93586 1.0667 2.93723 1.0629L3.06801 0.69517C3.14178 0.489075 3.27744 0.310812 3.45642 0.18478C3.6354 0.0587481 3.84895 -0.00889528 4.06786 -0.0088923ZM5.2245 2.11361C5.00561 2.11376 4.79205 2.04608 4.61321 1.91987C4.43436 1.79366 4.29903 1.61513 4.22582 1.40884L4.09504 1.04158C4.09306 1.03595 4.08938 1.03108 4.08451 1.02763C4.07964 1.02419 4.07382 1.02233 4.06786 1.02233C4.06189 1.02233 4.05607 1.02419 4.0512 1.02763C4.04633 1.03108 4.04265 1.03595 4.04067 1.04158L3.91012 1.40908C3.8604 1.54871 3.78195 1.67637 3.67983 1.7838C3.57771 1.89124 3.45419 1.97606 3.31726 2.0328C3.18032 2.08954 3.03301 2.11694 2.88484 2.11321C2.73666 2.10949 2.59091 2.07473 2.457 2.01119L2.10543 1.84384C2.09992 1.84112 2.09371 1.84015 2.08763 1.84107C2.08155 1.84199 2.0759 1.84476 2.07145 1.849C2.06724 1.85327 2.06445 1.85873 2.06344 1.86464C2.06244 1.87055 2.06327 1.87662 2.06582 1.88204L2.23387 2.23361C2.29766 2.3676 2.33261 2.5135 2.33645 2.66185C2.3403 2.81021 2.31297 2.95772 2.25621 3.09484C2.19946 3.23196 2.11455 3.35565 2.00698 3.45789C1.89942 3.56013 1.77159 3.63865 1.63176 3.68837L1.2645 3.81892C1.25881 3.82091 1.25389 3.82462 1.25041 3.82954C1.24693 3.83445 1.24506 3.84032 1.24506 3.84634C1.24506 3.85236 1.24693 3.85824 1.25041 3.86315C1.25389 3.86806 1.25881 3.87177 1.2645 3.87376L1.63223 4.00455C1.77189 4.05424 1.89957 4.13267 2.00703 4.23479C2.11448 4.3369 2.19932 4.46042 2.25606 4.59736C2.31281 4.73431 2.34019 4.88163 2.33645 5.02982C2.33271 5.17801 2.29792 5.32376 2.23434 5.45767L2.06653 5.80923C2.06385 5.81465 2.06294 5.82077 2.0639 5.82674C2.06487 5.8327 2.06767 5.83822 2.07192 5.84251C2.07611 5.84676 2.08154 5.84959 2.08742 5.85059C2.09331 5.8516 2.09936 5.85074 2.10473 5.84814L2.45746 5.68009C2.59138 5.61648 2.73715 5.58167 2.88537 5.57793C3.03358 5.57418 3.18092 5.60158 3.31788 5.65835C3.45484 5.71512 3.57836 5.8 3.68045 5.9075C3.78255 6.015 3.86095 6.14273 3.91059 6.28244L4.04114 6.64947C4.04312 6.65509 4.0468 6.65997 4.05167 6.66341C4.05654 6.66686 4.06236 6.66871 4.06832 6.66871C4.07429 6.66871 4.08011 6.66686 4.08498 6.66341C4.08985 6.65997 4.09353 6.65509 4.09551 6.64947L4.22629 6.2822C4.27604 6.14259 4.35451 6.01495 4.45664 5.90754C4.55877 5.80013 4.68228 5.71533 4.81922 5.65862C4.95615 5.6019 5.10345 5.57453 5.25162 5.57827C5.39979 5.58201 5.54552 5.61678 5.67942 5.68033L6.03145 5.85048C6.03691 5.85343 6.04317 5.85456 6.04932 5.85372C6.05547 5.85288 6.0612 5.8501 6.06567 5.8458C6.06985 5.84156 6.07264 5.83614 6.07364 5.83027C6.07465 5.82441 6.07383 5.81837 6.07129 5.81298L5.90325 5.45908C5.83962 5.32518 5.80481 5.17942 5.80105 5.03122C5.79729 4.88302 5.82467 4.73568 5.88141 4.59872C5.93816 4.46177 6.02302 4.33825 6.13049 4.23614C6.23797 4.13403 6.36567 4.05561 6.50535 4.00595L6.87262 3.87517C6.87833 3.87324 6.88329 3.86956 6.8868 3.86467C6.89031 3.85977 6.8922 3.85389 6.8922 3.84787C6.8922 3.84184 6.89031 3.83596 6.8868 3.83107C6.88329 3.82617 6.87833 3.82249 6.87262 3.82056L6.50489 3.68978C6.36525 3.64006 6.23759 3.5616 6.13016 3.45949C6.02272 3.35737 5.9379 3.23385 5.88116 3.09692C5.82442 2.95998 5.79703 2.81267 5.80075 2.66449C5.80447 2.51632 5.83923 2.37057 5.90278 2.23665L6.06989 1.88509C6.07289 1.8796 6.07405 1.87329 6.07321 1.86709C6.07236 1.8609 6.06956 1.85513 6.0652 1.85064C6.06102 1.84644 6.05564 1.84365 6.04981 1.84264C6.04397 1.84163 6.03796 1.84246 6.03262 1.84501L5.67965 2.01306C5.53725 2.07986 5.38179 2.1142 5.2245 2.11361ZM4.06837 5.38252C4.91621 5.38252 5.60352 4.69521 5.60352 3.84737C5.60352 2.99952 4.91621 2.31221 4.06837 2.31221C3.22052 2.31221 2.53321 2.99952 2.53321 3.84737C2.53321 4.69521 3.22052 5.38252 4.06837 5.38252ZM4.57227 3.84737C4.57227 4.12567 4.34667 4.35127 4.06837 4.35127C3.79007 4.35127 3.56446 4.12567 3.56446 3.84737C3.56446 3.56907 3.79007 3.34346 4.06837 3.34346C4.34667 3.34346 4.57227 3.56907 4.57227 3.84737Z"
          fill="#303030"/>
</svg>
