<svg width="16" height="16" viewBox="0 0 12 12" fill="none" xmlns="http://www.w3.org/2000/svg">
    <path fill-rule="evenodd" clip-rule="evenodd"
          d="M8.03053 1.6814C8.25058 1.6814 8.42897 1.85978 8.42897 2.07983V5.09902C8.42897 5.31907 8.25058 5.49746 8.03053 5.49746H6.49324C5.43947 5.49746 4.58521 4.6432 4.58521 3.58943C4.58521 2.53565 5.43947 1.6814 6.49324 1.6814L8.03053 1.6814ZM9.46022 3.09404V4.11251H10.5234C10.8082 4.11251 11.0391 4.34336 11.0391 4.62814C11.0391 4.91291 10.8082 5.14376 10.5234 5.14376H9.45953C9.4359 5.91265 8.80516 6.52871 8.03053 6.52871H6.49324C5.05069 6.52871 3.85086 5.48951 3.60152 4.11891H2.87213C2.38025 4.11891 1.98151 4.51765 1.98151 5.00953V9.42645C1.98151 9.91833 2.38025 10.3171 2.87213 10.3171H6.97797C7.26274 10.3171 7.49359 10.5479 7.49359 10.8327C7.49359 11.1175 7.26274 11.3483 6.97797 11.3483H2.87213C1.81071 11.3483 0.950256 10.4879 0.950256 9.42645V5.00953C0.950256 3.94811 1.81071 3.08766 2.87213 3.08766H3.59662C3.83472 1.70337 5.04098 0.650147 6.49324 0.650146L8.03053 0.650147C8.81444 0.650146 9.45099 1.28105 9.46012 2.06279L10.5234 2.06279C10.8082 2.06279 11.0391 2.29365 11.0391 2.57842C11.0391 2.86319 10.8082 3.09404 10.5234 3.09404L9.46022 3.09404Z"
          fill="#FFFFFF"
          fill-opacity="0.7"/>
</svg>
