<svg width="16" height="16" viewBox="0 0 32 32" fill="none" xmlns="http://www.w3.org/2000/svg">
    <path d="M0 16C0 7.16344 7.16344 0 16 0V0C24.8366 0 32 7.16344 32 16V16C32 24.8366 24.8366 32 16 32V32C7.16344 32 0 24.8366 0 16V16Z"
          fill="#FECB00"/>
    <path fill-rule="evenodd" clip-rule="evenodd"
          d="M14.8941 17.4641C14.8984 18.1016 15.4188 18.615 16.0564 18.6106C16.6939 18.6063 17.2073 18.0859 17.2029 17.4484L17.1217 10.7081C17.1173 10.0705 16.5969 9.55717 15.9594 9.56152C15.3218 9.56585 14.8085 10.0862 14.8128 10.7238L14.8941 17.4641ZM15.0537 22.1503C15.3316 22.404 15.6579 22.5309 16.0324 22.5309C16.4191 22.5309 16.7453 22.398 17.0111 22.1322C17.289 21.8664 17.4279 21.5522 17.4279 21.1898C17.4279 20.8152 17.289 20.5011 17.0111 20.2473C16.7332 19.9815 16.4009 19.8486 16.0143 19.8486C15.6397 19.8486 15.3135 19.9815 15.0356 20.2473C14.7698 20.5131 14.6369 20.8333 14.6369 21.2079C14.6369 21.5704 14.7758 21.8845 15.0537 22.1503Z"
          fill="#1C1C1E"/>
</svg>