<svg width="13" height="13" viewBox="0 0 12 12" fill="none" xmlns="http://www.w3.org/2000/svg">
    <path fill-rule="evenodd" clip-rule="evenodd"
          d="M4.61392 6.55434L4.59784 2.16459C4.59679 1.87982 4.3651 1.64981 4.08033 1.65086C3.79556 1.6519 3.56555 1.8836 3.56659 2.16837L3.58781 7.96038C3.58885 8.24441 3.8194 8.47412 4.10343 8.47412L9.87423 8.47412C10.159 8.47412 10.3899 8.24326 10.3899 7.95849C10.3899 7.67372 10.159 7.44287 9.87423 7.44287L5.18379 7.44287L11.7552 0.871438C11.9566 0.670074 11.9566 0.343598 11.7552 0.142234C11.5539 -0.0591301 11.2274 -0.0591301 11.026 0.142234L4.61392 6.55434ZM0.585938 1.69736C0.870709 1.69736 1.10156 1.92821 1.10156 2.21298V10.9552H9.86719C10.152 10.9552 10.3828 11.186 10.3828 11.4708C10.3828 11.7556 10.152 11.9864 9.86719 11.9864H0.585938C0.301166 11.9864 0.0703125 11.7556 0.0703125 11.4708V2.21298C0.0703125 1.92821 0.301166 1.69736 0.585938 1.69736Z"
          fill="#303030"/>
</svg>
