<svg width="16" height="16" viewBox="0 0 12 12" fill="none" xmlns="http://www.w3.org/2000/svg">
    <path fill-rule="evenodd" clip-rule="evenodd"
          d="M5.55469 4.1901L4.03813 2.72352C3.83342 2.52556 3.50699 2.53103 3.30903 2.73573C3.11107 2.94044 3.11653 3.26687 3.32124 3.46484L5.72063 5.78515C5.92103 5.97895 6.23918 5.97836 6.43887 5.78383L8.82073 3.46352C9.02472 3.26481 9.02899 2.93836 8.83028 2.73438C8.63157 2.5304 8.30512 2.52612 8.10114 2.72483L6.58594 4.20088L6.58594 0.516052C6.58594 0.23128 6.35508 0.000427233 6.07031 0.000427246C5.78554 0.000426902 5.55469 0.23128 5.55469 0.516052V4.1901ZM9.9975 6.70355C11.0905 6.70355 11.9766 7.58961 11.9766 8.68261V10.0214C11.9766 11.1144 11.0905 12.0004 9.9975 12.0004H2.02594C0.932931 12.0004 0.046875 11.1144 0.046875 10.0214V8.68261C0.046875 7.58961 0.932932 6.70355 2.02594 6.70355H9.9975ZM10.9453 8.68261C10.9453 8.15915 10.521 7.7348 9.9975 7.7348H2.02594C1.50248 7.7348 1.07812 8.15915 1.07812 8.68261V10.0214C1.07812 10.5448 1.50247 10.9692 2.02594 10.9692H9.9975C10.521 10.9692 10.9453 10.5448 10.9453 10.0214V8.68261ZM4.3125 9.16449C4.3125 8.93149 4.50138 8.74261 4.73438 8.74261H5.13281C5.36581 8.74261 5.55469 8.93149 5.55469 9.16449V9.53949C5.55469 9.77248 5.36581 9.96136 5.13281 9.96136H4.73438C4.50138 9.96136 4.3125 9.77248 4.3125 9.53949V9.16449ZM2.01562 9.16449C2.01562 8.93149 2.2045 8.74261 2.4375 8.74261H2.85938C3.09237 8.74261 3.28125 8.93149 3.28125 9.16449V9.53949C3.28125 9.77248 3.09237 9.96136 2.85938 9.96136H2.4375C2.2045 9.96136 2.01562 9.77248 2.01562 9.53949V9.16449Z"
          fill="#303030"/>
</svg>
