<svg width="16" height="16" viewBox="0 0 134 135" fill="none" xmlns="http://www.w3.org/2000/svg">
    <path d="M65.3255 0.860413C60.8932 0.860413 57.3474 4.40624 57.3474 8.83852C57.3474 13.2708 60.8932 16.8166 65.3255 16.8166C69.7577 16.8166 73.3036 13.2708 73.3036 8.83852C73.3036 4.40624 69.7577 0.860413 65.3255 0.860413Z" fill="#E93436"/>
    <path d="M82.9562 11.0054C78.5239 11.0054 74.9781 14.5512 74.9781 18.9835C74.9781 23.4158 78.5239 26.9616 82.9562 26.9616C87.3885 26.9616 90.9343 23.4158 90.9343 18.9835C90.9343 14.5512 87.3885 11.0054 82.9562 11.0054Z" fill="#E93436"/>
    <path d="M100.587 21.1504C96.1547 21.1504 92.6089 24.6962 92.6089 29.1285C92.6089 33.5608 96.1547 37.1066 100.587 37.1066C105.019 37.1066 108.565 33.5608 108.565 29.1285C108.565 24.6962 105.019 21.1504 100.587 21.1504Z" fill="#E93436"/>
    <path d="M118.217 47.3502C122.65 47.3502 126.196 43.8044 126.196 39.3721C126.196 34.9398 122.65 31.394 118.217 31.394C113.785 31.394 110.239 34.9398 110.239 39.3721C110.239 43.7059 113.785 47.3502 118.217 47.3502Z" fill="#E93436"/>
    <path d="M65.3255 21.1504C60.8932 21.1504 57.3474 24.6962 57.3474 29.1285C57.3474 33.5608 60.8932 37.1066 65.3255 37.1066C69.7577 37.1066 73.3036 33.5608 73.3036 29.1285C73.3036 24.6962 69.7577 21.1504 65.3255 21.1504Z" fill="#E93436"/>
    <path d="M82.9562 31.2953C78.5239 31.2953 74.9781 34.8412 74.9781 39.2735C74.9781 43.7057 78.5239 47.2516 82.9562 47.2516C87.3885 47.2516 90.9343 43.7057 90.9343 39.2735C90.9343 34.8412 87.3885 31.2953 82.9562 31.2953Z" fill="#E93436"/>
    <path d="M100.587 41.4403C96.1547 41.4403 92.6089 44.9861 92.6089 49.4184C92.6089 53.8507 96.1547 57.3965 100.587 57.3965C105.019 57.3965 108.565 53.8507 108.565 49.4184C108.565 44.9861 105.019 41.4403 100.587 41.4403Z" fill="#E93436"/>
    <path d="M118.217 51.5856C113.785 51.5856 110.239 55.1314 110.239 59.5637C110.239 63.996 113.785 67.5418 118.217 67.5418C122.65 67.5418 126.196 63.996 126.196 59.5637C126.196 55.1314 122.65 51.5856 118.217 51.5856Z" fill="#E93436"/>
    <path d="M65.3255 41.4403C60.8932 41.4403 57.3474 44.9861 57.3474 49.4184C57.3474 53.8507 60.8932 57.3965 65.3255 57.3965C69.7577 57.3965 73.3036 53.8507 73.3036 49.4184C73.3036 44.9861 69.7577 41.4403 65.3255 41.4403Z" fill="#E93436"/>
    <path d="M82.9562 51.5856C78.5239 51.5856 74.9781 55.1314 74.9781 59.5637C74.9781 63.996 78.5239 67.5418 82.9562 67.5418C87.3885 67.5418 90.9343 63.996 90.9343 59.5637C90.9343 55.1314 87.3885 51.5856 82.9562 51.5856Z" fill="#E93436"/>
    <path d="M100.587 61.7305C96.1547 61.7305 92.6089 65.2764 92.6089 69.7086C92.6089 74.1409 96.1547 77.6868 100.587 77.6868C105.019 77.6868 108.565 74.1409 108.565 69.7086C108.565 65.2764 105.019 61.7305 100.587 61.7305Z" fill="#E93436"/>
    <path d="M118.217 71.8755C113.785 71.8755 110.239 75.4213 110.239 79.8536C110.239 84.2859 113.785 87.8317 118.217 87.8317C122.65 87.8317 126.196 84.2859 126.196 79.8536C126.196 75.4213 122.65 71.8755 118.217 71.8755Z" fill="#E93436"/>
    <path d="M65.3255 61.7305C60.8932 61.7305 57.3474 65.2764 57.3474 69.7086C57.3474 74.1409 60.8932 77.6868 65.3255 77.6868C69.7577 77.6868 73.3036 74.1409 73.3036 69.7086C73.3036 65.2764 69.7577 61.7305 65.3255 61.7305Z" fill="#E93436"/>
    <path d="M82.9562 71.8755C78.5239 71.8755 74.9781 75.4213 74.9781 79.8536C74.9781 84.2859 78.5239 87.8317 82.9562 87.8317C87.3885 87.8317 90.9343 84.2859 90.9343 79.8536C90.9343 75.4213 87.3885 71.8755 82.9562 71.8755Z" fill="#E93436"/>
    <path d="M100.587 82.0205C96.1547 82.0205 92.6089 85.5663 92.6089 89.9986C92.6089 94.4309 96.1547 97.9767 100.587 97.9767C105.019 97.9767 108.565 94.4309 108.565 89.9986C108.565 85.5663 105.019 82.0205 100.587 82.0205Z" fill="#E93436"/>
    <path d="M118.217 92.1655C113.785 92.1655 110.239 95.7113 110.239 100.144C110.239 104.576 113.785 108.122 118.217 108.122C122.65 108.122 126.196 104.576 126.196 100.144C126.196 95.7113 122.65 92.1655 118.217 92.1655Z" fill="#E93436"/>
    <path d="M82.9561 115.115C82.1681 115.115 81.3802 115.312 80.6907 115.706C80.2967 115.804 79.9027 115.804 79.5088 115.804C79.1148 115.804 78.8193 115.706 78.5238 115.607C78.0313 115.509 77.5389 115.509 77.0464 115.41C75.4705 115.016 74.0915 114.13 72.9096 112.948C72.5156 112.554 72.1216 112.16 71.8261 111.668C71.4322 111.077 71.0382 110.584 70.7427 109.895H70.6442C70.4472 107.137 68.1818 104.97 65.3255 104.97C64.5375 104.97 63.7495 105.167 63.0601 105.561C62.6661 105.659 62.2721 105.659 61.7796 105.659C61.3857 105.659 61.0902 105.561 60.7947 105.462C60.3022 105.364 59.8097 105.364 59.3173 105.265C57.7413 104.871 56.3624 103.985 55.1805 102.901C54.7865 102.507 54.3925 102.114 54.097 101.621C53.703 101.03 53.309 100.538 53.0136 99.8481H52.9151C52.7181 97.0903 50.4527 94.9234 47.5963 94.9234C46.8084 94.9234 46.0204 95.1204 45.3309 95.4158C44.937 95.5143 44.543 95.5143 44.149 95.5143C43.8535 95.5143 43.558 95.4158 43.2625 95.3173C42.7701 95.2188 42.1791 95.2188 41.6866 95.0219C40.1107 94.5294 38.7318 93.4459 37.5498 92.264C37.1558 91.87 36.7619 91.476 36.4664 91.082C35.9739 90.2941 35.4814 89.5061 35.0874 88.7182H34.9889C34.6935 87.7332 34.201 86.9452 33.5115 86.2558C33.019 85.6648 32.6251 84.7784 32.2311 83.9904C32.0341 83.4979 31.8371 83.1039 31.6401 82.513C31.3446 81.6265 31.0491 80.8385 31.0491 80.0506C31.0491 79.1641 31.2461 78.3762 31.4431 77.5882C31.5416 77.0957 31.7386 76.6033 32.0341 76.1108C32.3296 75.5198 32.5266 74.9288 32.9205 74.4364V74.2394C34.2995 73.2544 35.2844 71.6785 35.2844 69.9056C35.2844 66.9507 32.9205 64.4883 29.8672 64.4883C26.8138 64.4883 24.45 66.8522 24.45 69.9056C24.45 71.777 25.4349 73.2544 26.8138 74.2394V74.3379C27.2078 74.9288 27.5033 75.5198 27.7988 76.1108C27.9958 76.6033 28.1928 76.9972 28.2913 77.4897C28.4883 78.2777 28.6852 79.0656 28.6852 79.9521C28.6852 80.8386 28.4883 81.6265 28.2913 82.4145C28.1928 82.9069 27.9958 83.3994 27.7988 83.7934C27.5033 84.3844 27.2078 85.0738 26.8138 85.5663V85.6648C25.4349 86.6498 24.45 88.2257 24.45 89.9986C24.45 92.9535 26.8138 95.4158 29.8672 95.4158C30.7536 95.4158 31.5416 95.1204 32.2311 94.8249H32.3296C32.6251 94.8249 33.1175 94.7264 33.413 94.7264C33.7085 94.7264 34.1025 94.8249 34.398 94.8249C34.8904 94.9234 35.3829 94.9234 35.8754 95.0219C37.4513 95.4158 38.8303 96.3023 40.0122 97.3857C40.4062 97.7797 40.8002 98.1737 41.0956 98.5677C41.4896 99.0602 41.8836 99.5526 42.0806 100.144C42.1791 103.098 44.543 105.462 47.3993 105.462C48.2858 105.462 48.9753 105.265 49.7632 104.871H49.8617C50.2557 104.871 50.6497 104.773 51.0437 104.773C51.3391 104.773 51.7331 104.871 52.0286 104.871C52.5211 104.97 53.0136 104.97 53.506 105.068C55.082 105.462 56.4609 106.349 57.6428 107.531C58.0368 107.925 58.4308 108.319 58.7263 108.811C59.1203 109.304 59.5142 109.895 59.8097 110.486H59.9082C60.1052 113.342 62.3706 115.509 65.227 115.509C66.1134 115.509 66.9014 115.213 67.5908 114.918H67.6893C68.0833 114.918 68.4773 114.819 68.8713 114.819C69.1668 114.819 69.4623 114.918 69.8562 114.918C70.3487 115.016 70.8412 115.016 71.3337 115.115C72.9096 115.509 74.2885 116.395 75.4705 117.479C75.8644 117.873 76.2584 118.267 76.5539 118.759C76.9479 119.35 77.3419 119.843 77.6374 120.532H77.7359C77.9328 123.29 80.1982 125.555 83.0546 125.555C86.0095 125.555 88.4718 123.191 88.4718 120.138C88.2748 117.479 85.911 115.115 82.9561 115.115Z" fill="#FF7728"/>
    <path d="M30.0641 54.8359C33.056 54.8359 35.4814 52.4105 35.4814 49.4186C35.4814 46.4268 33.056 44.0014 30.0641 44.0014C27.0723 44.0014 24.6469 46.4268 24.6469 49.4186C24.6469 52.4105 27.0723 54.8359 30.0641 54.8359Z" fill="#FF7728"/>
    <path d="M30.0641 34.5458C33.019 34.5458 35.4814 32.1819 35.4814 29.1286C35.4814 26.0752 33.019 23.8098 30.0641 23.8098C27.1093 23.8098 24.6469 26.1737 24.6469 29.2271C24.6469 32.2804 27.0108 34.5458 30.0641 34.5458Z" fill="#FF7728"/>
    <path d="M100.587 103.591C99.6018 103.591 98.7153 103.788 97.9274 104.182C97.2379 104.478 96.4499 104.675 95.662 104.675C95.465 104.675 95.3665 104.576 95.1695 104.576C93.2981 104.379 91.7222 103.394 90.7372 101.917C90.2447 101.129 89.8508 100.341 89.7523 99.3558L89.6538 99.2573C89.1613 96.0069 86.5019 93.5445 83.1531 93.5445C82.2666 93.5445 81.4787 93.7415 80.6907 94.037C79.9027 94.431 79.1148 94.5295 78.2283 94.5295C78.0313 94.5295 77.8343 94.431 77.6374 94.431C75.7659 94.234 74.19 93.2491 73.2051 91.7716C72.6141 90.9837 72.2201 89.9987 72.1216 89.0138L71.9246 88.9153C71.3337 85.7634 68.7728 83.3995 65.4239 83.3995C64.636 83.3995 63.848 83.5965 63.1586 83.892L63.0601 83.7935C62.2721 84.1875 61.3856 84.3845 60.4007 84.3845C60.2037 84.3845 60.1052 84.286 59.9082 84.286C58.0368 84.089 56.4609 83.104 55.3774 81.6266C54.7865 80.7402 54.3925 79.8537 54.294 78.7703L54.097 78.6718C53.8015 77.0958 52.9151 75.7169 51.6346 74.732V74.535C50.9451 73.944 50.3542 73.2545 49.9602 72.4666C49.5662 71.6786 49.3692 70.7921 49.3692 69.9057C49.3692 69.0192 49.5662 68.1328 49.9602 67.3448C50.3542 66.5569 50.9451 65.7689 51.6346 65.1779V64.8824C53.2105 63.7005 54.3925 61.8291 54.3925 59.6622C54.3925 57.4953 53.309 55.6239 51.6346 54.4419V54.245C50.9451 53.654 50.3542 52.9645 49.9602 52.0781C49.5662 51.2901 49.3692 50.4036 49.3692 49.5172C49.3692 48.6307 49.5662 47.7443 49.9602 46.9563C50.3542 46.1683 50.9451 45.3804 51.6346 44.7894V44.5924C53.2105 43.4105 54.3925 41.5391 54.3925 39.3722C54.3925 35.6294 51.4376 32.6745 47.6948 32.6745C43.952 32.6745 40.9971 35.6294 40.9971 39.3722C40.9971 41.5391 42.0806 43.4105 43.755 44.5924V44.7894C44.4445 45.3804 45.0354 46.0698 45.4294 46.9563C45.8234 47.7443 46.0204 48.6307 46.0204 49.5172C46.0204 50.4036 45.8234 51.2901 45.4294 52.0781C45.0354 52.866 44.4445 53.654 43.755 54.245V54.4419C42.1791 55.6239 40.9971 57.4953 40.9971 59.6622C40.9971 61.8291 42.0806 63.7005 43.755 64.8824V65.0794C44.4445 65.6704 45.0354 66.3599 45.4294 67.2463C45.8234 68.0343 46.0204 68.9207 46.0204 69.8072C46.0204 70.6937 45.8234 71.5801 45.4294 72.3681C45.0354 73.156 44.4445 73.944 43.755 74.535V74.732C42.1791 75.9139 40.9971 77.7853 40.9971 79.9522C40.9971 83.695 43.952 86.6499 47.6948 86.6499C48.7783 86.6499 49.8617 86.2559 50.7482 85.7634L50.8467 85.8619C51.4376 85.6649 52.0286 85.5664 52.6196 85.5664C52.8166 85.5664 53.0135 85.6649 53.112 85.6649C54.9835 85.8619 56.5594 86.8469 57.5443 88.2258C57.9383 88.8168 58.3323 89.5062 58.4308 90.2942L58.5293 90.3927C58.7263 93.9385 61.5826 96.6964 65.1285 96.6964C66.2119 96.6964 67.1969 96.4009 68.0833 95.9084L68.1818 96.0069C68.7728 95.8099 69.4622 95.7114 70.0532 95.7114C70.2502 95.7114 70.3487 95.8099 70.5457 95.8099C72.4171 96.0069 74.0915 96.9919 75.0765 98.4693C75.5689 99.1588 75.8644 99.8482 76.0614 100.636L76.1599 100.735C76.4554 104.182 79.2133 106.841 82.7591 106.841C83.7441 106.841 84.729 106.546 85.517 106.152H85.6155C86.3049 105.856 86.9944 105.758 87.7824 105.758C87.9793 105.758 88.0778 105.856 88.2748 105.856C90.1462 106.053 91.7222 107.038 92.7071 108.516C93.1996 109.205 93.5936 109.993 93.6921 110.88L93.7906 110.978C94.1845 114.327 96.9424 116.888 100.291 116.888C104.034 116.888 106.989 113.933 106.989 110.19C107.284 106.644 104.231 103.591 100.587 103.591Z" fill="#FB5F34"/>
    <path d="M47.6948 25.6813C51.3938 25.6813 54.3925 22.6826 54.3925 18.9836C54.3925 15.2846 51.3938 12.2859 47.6948 12.2859C43.9958 12.2859 40.9971 15.2846 40.9971 18.9836C40.9971 22.6826 43.9958 25.6813 47.6948 25.6813Z" fill="#FB5F34"/>
    <path d="M12.4336 83.8919C14.6005 83.8919 16.4719 82.1189 16.4719 79.8535C16.4719 77.5882 14.699 75.8152 12.4336 75.8152C10.1682 75.8152 8.39532 77.5882 8.39532 79.8535C8.39532 82.1189 10.1682 83.8919 12.4336 83.8919Z" fill="#FC9E0C"/>
    <path d="M12.4336 63.6019C14.6005 63.6019 16.4719 61.829 16.4719 59.5636C16.4719 57.2982 14.699 55.5253 12.4336 55.5253C10.1682 55.5253 8.39532 57.3967 8.39532 59.5636C8.39532 61.7305 10.1682 63.6019 12.4336 63.6019Z" fill="#FC9E0C"/>
    <path d="M12.4336 43.312C14.6005 43.312 16.4719 41.539 16.4719 39.2737C16.4719 37.0083 14.699 35.2354 12.4336 35.2354C10.1682 35.2354 8.39532 37.1068 8.39532 39.2737C8.39532 41.4405 10.1682 43.312 12.4336 43.312Z" fill="#FC9E0C"/>
    <path d="M65.3256 126.54C65.2271 126.54 65.1286 126.639 65.0301 126.639L64.8331 126.54C64.3406 126.54 63.9467 126.639 63.4542 126.639C62.9617 126.639 62.5677 126.442 62.0752 126.442C61.4843 126.343 60.8933 126.343 60.4008 126.147C59.9083 126.048 59.5144 125.95 59.1204 125.753C57.643 125.26 56.3625 124.374 55.1806 123.487C54.7866 123.192 54.3926 122.896 54.0971 122.502C53.7032 122.108 53.4077 121.714 53.0137 121.222C52.4227 120.434 51.8317 119.646 51.5363 118.759L51.0438 118.464C50.3543 117.282 49.2709 116.395 47.8919 116.395C47.7934 116.395 47.6949 116.494 47.5964 116.494L47.498 116.395C47.0055 116.494 46.513 116.494 46.0205 116.494C45.528 116.494 45.0356 116.297 44.5431 116.297C43.9521 116.198 43.4596 116.198 42.8687 116.002C42.3762 115.903 41.9822 115.805 41.5882 115.608C40.1108 115.115 38.8304 114.229 37.6484 113.342C37.2545 113.047 36.8605 112.653 36.565 112.357C36.171 111.963 35.8755 111.569 35.4815 111.077C34.8906 110.289 34.2996 109.402 33.9056 108.516L33.4131 108.22C32.7237 107.038 31.6402 106.152 30.2613 106.152C30.1628 106.152 30.1628 106.25 30.0643 106.25L29.9658 106.152C29.4733 106.25 28.9809 106.25 28.3899 106.25C27.8974 106.25 27.5034 106.053 27.0109 106.053C26.42 105.955 25.9275 105.955 25.3365 105.758C24.8441 105.66 24.4501 105.561 23.9576 105.463C22.4802 104.97 21.1997 104.182 20.0178 103.197C19.6238 102.902 19.2298 102.508 18.9343 102.212C18.5404 101.818 18.1464 101.424 17.8509 101.03C17.1614 100.144 16.5705 99.2573 16.1765 98.2724L15.7825 98.0754C15.093 96.9919 14.0096 96.1055 12.6307 96.1055C10.4638 96.1055 8.59235 97.8784 8.59235 100.144C8.59235 102.409 10.3653 104.182 12.6307 104.182C12.7291 104.182 12.8276 104.084 13.0246 103.985L13.2216 104.084C13.6156 104.084 14.1081 103.985 14.5021 103.985C14.9945 103.985 15.3885 104.182 15.881 104.182C16.472 104.281 17.0629 104.281 17.5554 104.478C18.0479 104.576 18.4419 104.675 18.8358 104.872C20.3133 105.364 21.5937 106.152 22.7757 107.137C23.1696 107.432 23.5636 107.728 23.8591 108.122C24.2531 108.516 24.5486 108.91 24.9425 109.402C25.5335 110.19 26.1245 110.978 26.5185 111.865L26.9125 112.16C27.6019 113.342 28.6854 114.327 30.1628 114.327C30.2613 114.327 30.3598 114.229 30.4583 114.229L30.6553 114.327C31.0493 114.327 31.5417 114.229 31.9357 114.229C32.4282 114.229 32.8222 114.426 33.3146 114.426C33.9056 114.524 34.4966 114.524 34.9891 114.721C35.4815 114.82 35.8755 114.918 36.2695 115.115C37.7469 115.608 39.0274 116.494 40.2093 117.38C40.6033 117.676 40.9973 117.971 41.2928 118.365C41.6867 118.759 41.9822 119.153 42.3762 119.646C42.9672 120.434 43.5581 121.222 43.8536 122.108L44.3461 122.404C45.0356 123.586 46.119 124.571 47.498 124.571C47.5964 124.571 47.6949 124.472 47.7934 124.472L47.9904 124.571C48.4829 124.571 48.8769 124.472 49.3694 124.472C49.8618 124.472 50.2558 124.669 50.7483 124.669C51.3393 124.768 51.9302 124.768 52.4227 124.965C52.9152 125.063 53.3092 125.162 53.7032 125.359C55.1806 125.851 56.461 126.737 57.643 127.624C58.0369 127.919 58.4309 128.215 58.7264 128.609C59.1204 129.003 59.5144 129.397 59.8099 129.889C60.4008 130.677 60.9918 131.465 61.3858 132.45L61.8783 132.746C62.5677 133.928 63.6512 134.814 65.0301 134.814C67.197 134.814 69.0684 133.041 69.0684 130.776C69.0684 128.51 67.4925 126.54 65.3256 126.54Z" fill="#FC9E0C"/>
</svg>
