<svg width="13" height="13" viewBox="0 0 134 135" fill="none" xmlns="http://www.w3.org/2000/svg">
    <path fill-rule="evenodd" clip-rule="evenodd"
          d="M65.3022 0.674377C60.8699 0.674377 57.3241 4.22021 57.3241 8.65249C57.3241 13.0848 60.8699 16.6306 65.3022 16.6306C69.7345 16.6306 73.2803 13.0848 73.2803 8.65249C73.2803 4.22021 69.7345 0.674377 65.3022 0.674377ZM82.9332 10.8194C78.5009 10.8194 74.9551 14.3652 74.9551 18.7975C74.9551 23.2298 78.5009 26.7756 82.9332 26.7756C87.3655 26.7756 90.9113 23.2298 90.9113 18.7975C90.9113 14.3652 87.3655 10.8194 82.9332 10.8194ZM92.5856 28.9424C92.5856 24.5102 96.1314 20.9643 100.564 20.9643C104.996 20.9643 108.542 24.5102 108.542 28.9424C108.542 33.3747 104.996 36.9206 100.564 36.9206C96.1314 36.9206 92.5856 33.3747 92.5856 28.9424ZM118.194 47.1642C122.627 47.1642 126.173 43.6183 126.173 39.186C126.173 34.7538 122.627 31.2079 118.194 31.2079C113.762 31.2079 110.216 34.7538 110.216 39.186C110.216 43.5198 113.762 47.1642 118.194 47.1642ZM57.3243 28.9424C57.3243 24.5102 60.8702 20.9643 65.3024 20.9643C69.7347 20.9643 73.2806 24.5102 73.2806 28.9424C73.2806 33.3747 69.7347 36.9206 65.3024 36.9206C60.8702 36.9206 57.3243 33.3747 57.3243 28.9424ZM82.9332 31.1093C78.5009 31.1093 74.9551 34.6551 74.9551 39.0874C74.9551 43.5197 78.5009 47.0655 82.9332 47.0655C87.3655 47.0655 90.9113 43.5197 90.9113 39.0874C90.9113 34.6551 87.3655 31.1093 82.9332 31.1093ZM92.5856 49.2327C92.5856 44.8004 96.1314 41.2545 100.564 41.2545C104.996 41.2545 108.542 44.8004 108.542 49.2327C108.542 53.6649 104.996 57.2108 100.564 57.2108C96.1314 57.2108 92.5856 53.6649 92.5856 49.2327ZM118.194 51.3993C113.762 51.3993 110.216 54.9451 110.216 59.3774C110.216 63.8097 113.762 67.3555 118.194 67.3555C122.627 67.3555 126.173 63.8097 126.173 59.3774C126.173 54.9451 122.627 51.3993 118.194 51.3993ZM57.3243 49.2327C57.3243 44.8004 60.8702 41.2545 65.3024 41.2545C69.7347 41.2545 73.2806 44.8004 73.2806 49.2327C73.2806 53.6649 69.7347 57.2108 65.3024 57.2108C60.8702 57.2108 57.3243 53.6649 57.3243 49.2327ZM82.9332 51.3993C78.5009 51.3993 74.9551 54.9451 74.9551 59.3774C74.9551 63.8097 78.5009 67.3555 82.9332 67.3555C87.3655 67.3555 90.9113 63.8097 90.9113 59.3774C90.9113 54.9451 87.3655 51.3993 82.9332 51.3993ZM92.5856 69.5226C92.5856 65.0903 96.1314 61.5445 100.564 61.5445C104.996 61.5445 108.542 65.0903 108.542 69.5226C108.542 73.9549 104.996 77.5007 100.564 77.5007C96.1314 77.5007 92.5856 73.9549 92.5856 69.5226ZM118.194 71.6895C113.762 71.6895 110.216 75.2353 110.216 79.6676C110.216 84.0999 113.762 87.6457 118.194 87.6457C122.627 87.6457 126.173 84.0999 126.173 79.6676C126.173 75.2353 122.627 71.6895 118.194 71.6895ZM57.3243 69.5226C57.3243 65.0903 60.8702 61.5445 65.3024 61.5445C69.7347 61.5445 73.2806 65.0903 73.2806 69.5226C73.2806 73.9549 69.7347 77.5007 65.3024 77.5007C60.8702 77.5007 57.3243 73.9549 57.3243 69.5226ZM82.9332 71.6895C78.5009 71.6895 74.9551 75.2353 74.9551 79.6676C74.9551 84.0999 78.5009 87.6457 82.9332 87.6457C87.3655 87.6457 90.9113 84.0999 90.9113 79.6676C90.9113 75.2353 87.3655 71.6895 82.9332 71.6895ZM92.5856 89.8126C92.5856 85.3803 96.1314 81.8345 100.564 81.8345C104.996 81.8345 108.542 85.3803 108.542 89.8126C108.542 94.2449 104.996 97.7907 100.564 97.7907C96.1314 97.7907 92.5856 94.2449 92.5856 89.8126ZM118.194 91.9794C113.762 91.9794 110.216 95.5253 110.216 99.9576C110.216 104.39 113.762 107.936 118.194 107.936C122.627 107.936 126.173 104.39 126.173 99.9576C126.173 95.5253 122.627 91.9794 118.194 91.9794ZM80.6677 115.52C81.3572 115.126 82.1451 114.929 82.9331 114.929C85.8879 114.929 88.2518 117.293 88.4488 119.952C88.4488 123.005 85.9864 125.369 83.0316 125.369C80.1752 125.369 77.9098 123.104 77.7128 120.346H77.6143C77.3853 119.812 77.0972 119.396 76.7957 118.961C76.7082 118.834 76.6195 118.706 76.5309 118.573C76.2354 118.081 75.8414 117.687 75.4474 117.293C74.2655 116.209 72.8866 115.323 71.3106 114.929C71.0644 114.88 70.8182 114.855 70.5719 114.83L70.5717 114.83C70.3255 114.806 70.0794 114.781 69.8332 114.732C69.6221 114.732 69.4392 114.704 69.2695 114.677L69.2694 114.677C69.1225 114.655 68.9854 114.633 68.8483 114.633C68.6513 114.633 68.4543 114.658 68.2573 114.683C68.0603 114.707 67.8633 114.732 67.6663 114.732H67.5678C66.8784 115.027 66.0904 115.323 65.2039 115.323C62.3476 115.323 60.0822 113.156 59.8852 110.3H59.7867C59.4912 109.709 59.0972 109.118 58.7033 108.625C58.4078 108.133 58.0138 107.739 57.6198 107.345C56.4379 106.163 55.0589 105.276 53.483 104.882C53.2368 104.833 52.9905 104.808 52.7443 104.784C52.4981 104.759 52.2518 104.735 52.0056 104.685C51.8578 104.685 51.6855 104.661 51.5131 104.636C51.3407 104.611 51.1684 104.587 51.0206 104.587C50.8237 104.587 50.6268 104.611 50.4298 104.636L50.4297 104.636L50.4295 104.636C50.2325 104.661 50.0356 104.685 49.8387 104.685H49.7402C48.9522 105.079 48.2628 105.276 47.3763 105.276C44.5199 105.276 42.1561 102.912 42.0576 99.9576C41.8606 99.3666 41.4666 98.8741 41.0726 98.3817C40.7772 97.9877 40.3832 97.5938 39.9893 97.1998L39.9892 97.1997C38.8072 96.1163 37.4283 95.2298 35.8524 94.8358C35.6061 94.7866 35.3599 94.762 35.1137 94.7373C34.8674 94.7127 34.6212 94.6881 34.3749 94.6389C34.2273 94.6389 34.055 94.6142 33.8827 94.5896L33.8825 94.5896L33.8823 94.5896C33.71 94.565 33.5377 94.5404 33.39 94.5404C33.2424 94.5404 33.0456 94.565 32.8487 94.5896L32.8486 94.5896H32.8485L32.8483 94.5896L32.848 94.5896H32.8479L32.8478 94.5897C32.651 94.6143 32.4542 94.6389 32.3065 94.6389H32.208C31.5186 94.9343 30.7306 95.2298 29.8442 95.2298C26.7908 95.2298 24.4269 92.7674 24.4269 89.8126C24.4269 88.0397 25.4119 86.4638 26.7908 85.4788V85.3803C27.107 84.9851 27.3598 84.4629 27.6 83.9667L27.6002 83.9663L27.6004 83.9659L27.6006 83.9655L27.6008 83.9651L27.6009 83.9647L27.6011 83.9643C27.6598 83.843 27.7178 83.7233 27.7758 83.6074C27.9728 83.2134 28.1697 82.7209 28.2682 82.2285C28.4652 81.4405 28.6622 80.6525 28.6622 79.7661C28.6622 78.8796 28.4652 78.0917 28.2682 77.3037C28.1922 76.9235 28.0575 76.602 27.9093 76.2486C27.8656 76.1442 27.8207 76.037 27.7758 75.9248C27.4803 75.3338 27.1848 74.7428 26.7908 74.1518V74.0534C25.4119 73.0684 24.4269 71.591 24.4269 69.7196C24.4269 66.6662 26.7908 64.3023 29.8442 64.3023C32.8975 64.3023 35.2614 66.7647 35.2614 69.7196C35.2614 71.4925 34.2764 73.0684 32.8975 74.0534V74.2503C32.6177 74.6001 32.4372 74.9996 32.2503 75.4135C32.174 75.5823 32.0967 75.7536 32.0111 75.9248C31.7156 76.4172 31.5186 76.9097 31.4201 77.4022C31.2231 78.1902 31.0261 78.9781 31.0261 79.8646C31.0261 80.5729 31.2649 81.2813 31.5278 82.0612C31.5574 82.1489 31.5872 82.2374 31.6171 82.327C31.7484 82.7209 31.8797 83.0274 32.0111 83.3338C32.0767 83.487 32.1424 83.6402 32.208 83.8044C32.2732 83.9347 32.3383 84.0676 32.4039 84.2015L32.4041 84.202C32.7352 84.8777 33.0775 85.5766 33.4885 86.0698C34.178 86.7592 34.6704 87.5472 34.9659 88.5322H35.0644C35.4584 89.3201 35.9509 90.1081 36.4433 90.896C36.7388 91.29 37.1328 91.684 37.5268 92.078C38.7087 93.2599 40.0877 94.3434 41.6636 94.8358C41.9857 94.9647 42.35 95.0093 42.7013 95.0522C42.887 95.075 43.0692 95.0973 43.2395 95.1313C43.535 95.2298 43.8305 95.3283 44.126 95.3283H44.1261C44.52 95.3283 44.914 95.3283 45.3079 95.2298C45.9974 94.9343 46.7853 94.7374 47.5733 94.7374C50.4297 94.7374 52.6951 96.9042 52.892 99.6621H52.9905C53.2195 100.196 53.5077 100.612 53.8091 101.048C53.8967 101.174 53.9853 101.302 54.074 101.435C54.3695 101.927 54.7634 102.321 55.1574 102.715L55.1574 102.715C56.3394 103.799 57.7183 104.685 59.2942 105.079C59.5405 105.129 59.7867 105.153 60.0329 105.178C60.2792 105.202 60.5254 105.227 60.7717 105.276L60.7718 105.276L60.7718 105.276C61.0673 105.375 61.3627 105.473 61.7566 105.473C62.2491 105.473 62.6431 105.473 63.037 105.375C63.7265 104.981 64.5145 104.784 65.3024 104.784C68.1588 104.784 70.4242 106.951 70.6212 109.709H70.7197C70.9487 110.243 71.2368 110.659 71.5382 111.094C71.6258 111.221 71.7145 111.349 71.8031 111.482C72.0986 111.974 72.4926 112.368 72.8866 112.762C74.0685 113.944 75.4474 114.83 77.0234 115.224C77.2696 115.274 77.5158 115.298 77.7621 115.323L77.7623 115.323C78.0085 115.347 78.2546 115.372 78.5008 115.421C78.7963 115.52 79.0918 115.618 79.4857 115.618C79.8797 115.618 80.2737 115.618 80.6677 115.52ZM30.0412 54.6496C33.033 54.6496 35.4584 52.2242 35.4584 49.2324C35.4584 46.2405 33.033 43.8151 30.0412 43.8151C27.0493 43.8151 24.6239 46.2405 24.6239 49.2324C24.6239 52.2242 27.0493 54.6496 30.0412 54.6496ZM35.4584 28.9425C35.4584 31.9959 32.996 34.3598 30.0412 34.3598C26.9878 34.3598 24.6239 32.0944 24.6239 29.041C24.6239 25.9877 27.0863 23.6238 30.0412 23.6238C32.996 23.6238 35.4584 25.8892 35.4584 28.9425ZM100.564 103.405C99.5788 103.405 98.6923 103.602 97.9044 103.996C97.2149 104.291 96.4269 104.488 95.639 104.488C95.5405 104.488 95.4666 104.464 95.3927 104.439C95.3189 104.415 95.245 104.39 95.1465 104.39C93.2751 104.193 91.6992 103.208 90.7142 101.731C90.2217 100.943 89.8277 100.155 89.7292 99.1697L89.6308 99.0713C89.1383 95.8209 86.4789 93.3585 83.1301 93.3585C82.2436 93.3585 81.4557 93.5555 80.6677 93.851C79.8797 94.245 79.0918 94.3435 78.2053 94.3435C78.1069 94.3435 78.0084 94.3189 77.9099 94.2943L77.9098 94.2942L77.9097 94.2942C77.8113 94.2696 77.7128 94.245 77.6143 94.245C75.7429 94.048 74.167 93.063 73.1821 91.5856C72.5911 90.7976 72.1971 89.8127 72.0986 88.8277L71.9016 88.7292C71.3106 85.5774 68.7498 83.2135 65.4009 83.2135C64.613 83.2135 63.825 83.4105 63.1355 83.706L63.037 83.6075C62.2491 84.0015 61.3626 84.1985 60.3777 84.1985C60.2792 84.1985 60.2053 84.1738 60.1314 84.1492C60.0576 84.1246 59.9837 84.1 59.8852 84.1C58.0138 83.903 56.4379 82.918 55.3544 81.4406C54.7635 80.5541 54.3695 79.6677 54.271 78.5842L54.074 78.4857C53.7785 76.9098 52.892 75.5309 51.6116 74.5459V74.3489C50.9221 73.758 50.3312 73.0685 49.9372 72.2805C49.5432 71.4926 49.3462 70.6061 49.3462 69.7197C49.3462 68.8332 49.5432 67.9468 49.9372 67.1588C50.3312 66.3708 50.9221 65.5829 51.6116 64.9919V64.6964C53.1875 63.5145 54.3695 61.6431 54.3695 59.4762C54.3695 57.3093 53.286 55.4379 51.6116 54.2559V54.0589C50.9221 53.468 50.3312 52.7785 49.9372 51.892C49.5432 51.1041 49.3462 50.2176 49.3462 49.3312C49.3462 48.4447 49.5432 47.5583 49.9372 46.7703C50.3312 45.9823 50.9221 45.1944 51.6116 44.6034V44.4064C53.1875 43.2245 54.3695 41.3531 54.3695 39.1862C54.3695 35.4433 51.4146 32.4885 47.6718 32.4885C43.929 32.4885 40.9741 35.4433 40.9741 39.1862C40.9741 41.3531 42.0576 43.2245 43.732 44.4064V44.6034C44.4215 45.1944 45.0124 45.8838 45.4064 46.7703C45.8004 47.5583 45.9974 48.4447 45.9974 49.3312C45.9974 50.2176 45.8004 51.1041 45.4064 51.892C45.0124 52.68 44.4215 53.468 43.732 54.0589V54.2559C42.1561 55.4379 40.9741 57.3093 40.9741 59.4762C40.9741 61.6431 42.0576 63.5145 43.732 64.6964V64.8934C44.4215 65.4844 45.0124 66.1738 45.4064 67.0603C45.8004 67.8483 45.9974 68.7347 45.9974 69.6212C45.9974 70.5076 45.8004 71.3941 45.4064 72.1821C45.0124 72.97 44.4215 73.758 43.732 74.3489V74.5459C42.1561 75.7279 40.9741 77.5993 40.9741 79.7662C40.9741 83.509 43.929 86.4639 47.6718 86.4639C48.7552 86.4639 49.8387 86.0699 50.7251 85.5774L50.8236 85.6759C51.4146 85.4789 52.0056 85.3804 52.5966 85.3804C52.712 85.3804 52.8273 85.4142 52.9229 85.4422C52.9905 85.462 53.0482 85.4789 53.089 85.4789C54.9604 85.6759 56.5364 86.6608 57.5213 88.0398C57.9153 88.6307 58.3093 89.3202 58.4078 90.1082L58.5063 90.2067C58.7033 93.7525 61.5596 96.5104 65.1054 96.5104C66.1889 96.5104 67.1738 96.2149 68.0603 95.7224L68.1588 95.8209C68.7498 95.6239 69.4392 95.5254 70.0302 95.5254C70.1287 95.5254 70.2026 95.55 70.2764 95.5747C70.3503 95.5993 70.4242 95.6239 70.5227 95.6239C72.3941 95.8209 74.0685 96.8059 75.0535 98.2833C75.5459 98.9727 75.8414 99.6622 76.0384 100.45L76.1369 100.549C76.4324 103.996 79.1903 106.655 82.7361 106.655C83.721 106.655 84.706 106.36 85.494 105.966H85.5925C86.2819 105.67 86.9714 105.572 87.7593 105.572C87.8578 105.572 87.9317 105.597 88.0056 105.621C88.0794 105.646 88.1533 105.67 88.2518 105.67C90.1232 105.867 91.6992 106.852 92.6841 108.33C93.1766 109.019 93.5706 109.807 93.6691 110.694L93.7675 110.792C94.1615 114.141 96.9194 116.702 100.268 116.702C104.011 116.702 106.966 113.747 106.966 110.004C107.261 106.458 104.208 103.405 100.564 103.405ZM54.3692 18.7976C54.3692 22.4966 51.3706 25.4953 47.6715 25.4953C43.9725 25.4953 40.9739 22.4966 40.9739 18.7976C40.9739 15.0986 43.9725 12.0999 47.6715 12.0999C51.3706 12.0999 54.3692 15.0986 54.3692 18.7976ZM12.4104 83.7058C14.5773 83.7058 16.4487 81.9329 16.4487 79.6675C16.4487 77.4021 14.6758 75.6292 12.4104 75.6292C10.145 75.6292 8.37207 77.4021 8.37207 79.6675C8.37207 81.9329 10.145 83.7058 12.4104 83.7058ZM16.4487 59.3776C16.4487 61.643 14.5773 63.4159 12.4104 63.4159C10.145 63.4159 8.37207 61.5445 8.37207 59.3776C8.37207 57.2107 10.145 55.3393 12.4104 55.3393C14.6758 55.3393 16.4487 57.1122 16.4487 59.3776ZM12.4104 43.1257C14.5773 43.1257 16.4487 41.3528 16.4487 39.0874C16.4487 36.822 14.6758 35.0491 12.4104 35.0491C10.145 35.0491 8.37207 36.9205 8.37207 39.0874C8.37207 41.2543 10.145 43.1257 12.4104 43.1257ZM65.1546 126.403C65.2038 126.379 65.253 126.354 65.3023 126.354C67.4692 126.354 69.0451 128.324 69.0451 130.589C69.0451 132.855 67.1737 134.628 65.0068 134.628C63.6279 134.628 62.5444 133.741 61.855 132.559L61.3625 132.264C60.9685 131.279 60.3775 130.491 59.7866 129.703C59.4911 129.211 59.0971 128.817 58.7032 128.423L58.7031 128.423C58.4076 128.029 58.0137 127.733 57.6197 127.438C56.4377 126.551 55.1573 125.665 53.6799 125.172C53.2859 124.975 52.8919 124.877 52.3994 124.778C52.0651 124.645 51.6855 124.602 51.2912 124.557C51.1047 124.536 50.9148 124.514 50.725 124.483C50.4788 124.483 50.2572 124.434 50.0355 124.384C49.8139 124.335 49.5923 124.286 49.3461 124.286C49.0998 124.286 48.8782 124.31 48.6566 124.335C48.435 124.36 48.2134 124.384 47.9671 124.384L47.7702 124.286C47.7209 124.286 47.6717 124.31 47.6224 124.335C47.5732 124.36 47.5239 124.384 47.4747 124.384C46.0957 124.384 45.0123 123.399 44.3228 122.217L43.8303 121.922C43.5349 121.035 42.9439 120.248 42.3529 119.46C42.2853 119.375 42.2206 119.293 42.1578 119.214C41.8546 118.832 41.5958 118.505 41.2695 118.179C40.974 117.785 40.58 117.49 40.186 117.194C39.0041 116.308 37.7236 115.421 36.2462 114.929C35.8522 114.732 35.4582 114.633 34.9658 114.535C34.6315 114.401 34.2518 114.358 33.8576 114.314C33.671 114.292 33.4812 114.271 33.2914 114.239C33.0451 114.239 32.8235 114.19 32.6019 114.141C32.3803 114.092 32.1587 114.042 31.9124 114.042C31.7154 114.042 31.4938 114.067 31.2722 114.092C31.0506 114.116 30.829 114.141 30.632 114.141L30.435 114.042C30.3857 114.042 30.3365 114.067 30.2873 114.092C30.238 114.116 30.1888 114.141 30.1395 114.141C28.6621 114.141 27.5786 113.156 26.8892 111.974L26.4952 111.678C26.1012 110.792 25.5103 110.004 24.9193 109.216L24.9193 109.216C24.8517 109.132 24.787 109.05 24.7242 108.971C24.421 108.588 24.1622 108.262 23.8358 107.936C23.5403 107.542 23.1463 107.246 22.7524 106.951C21.5704 105.966 20.29 105.178 18.8126 104.685C18.4186 104.488 18.0246 104.39 17.5321 104.291C17.1978 104.158 16.8182 104.115 16.424 104.07C16.2374 104.049 16.0475 104.027 15.8577 103.996C15.6115 103.996 15.3899 103.947 15.1682 103.897C14.9466 103.848 14.725 103.799 14.4788 103.799C14.2818 103.799 14.0602 103.823 13.8386 103.848C13.6169 103.873 13.3953 103.897 13.1983 103.897L13.0013 103.799C12.9261 103.836 12.8652 103.874 12.8132 103.906C12.7291 103.958 12.6682 103.996 12.6074 103.996C10.342 103.996 8.56906 102.223 8.56906 99.9575C8.56906 97.6921 10.4405 95.9192 12.6074 95.9192C13.9863 95.9192 15.0697 96.8056 15.7592 97.8891L16.1532 98.0861C16.5472 99.071 17.1381 99.9575 17.8276 100.844C18.1231 101.238 18.5171 101.632 18.9111 102.026C19.2065 102.321 19.6005 102.715 19.9945 103.011C21.1764 103.996 22.4569 104.784 23.9343 105.276C24.1806 105.325 24.4022 105.375 24.6239 105.424C24.8455 105.473 25.067 105.522 25.3132 105.572C25.7158 105.706 26.0726 105.749 26.446 105.793C26.6208 105.814 26.7992 105.836 26.9877 105.867C27.2339 105.867 27.4555 105.916 27.6771 105.966C27.8987 106.015 28.1204 106.064 28.3666 106.064C28.9576 106.064 29.45 106.064 29.9425 105.966L30.041 106.064C30.0903 106.064 30.1149 106.04 30.1395 106.015C30.1641 105.99 30.1888 105.966 30.238 105.966C31.6169 105.966 32.7004 106.852 33.3898 108.034L33.8823 108.33C34.2763 109.216 34.8673 110.103 35.4582 110.89C35.5258 110.975 35.5905 111.057 35.6533 111.136C35.9565 111.518 36.2153 111.844 36.5417 112.171C36.8372 112.466 37.2312 112.86 37.6251 113.156C38.8071 114.042 40.0875 114.929 41.565 115.421C41.9589 115.618 42.3529 115.717 42.8454 115.815C43.2479 115.949 43.6048 115.992 43.9782 116.037C44.153 116.058 44.3314 116.079 44.5198 116.111C44.766 116.111 45.0123 116.16 45.2585 116.209C45.5048 116.258 45.751 116.308 45.9972 116.308C46.4897 116.308 46.9822 116.308 47.4747 116.209L47.5732 116.308C47.6224 116.308 47.6717 116.283 47.7209 116.258C47.7702 116.234 47.8194 116.209 47.8686 116.209C49.2476 116.209 50.331 117.096 51.0205 118.278L51.513 118.573C51.8085 119.46 52.3994 120.248 52.9904 121.035C53.058 121.12 53.1227 121.202 53.1856 121.281C53.4887 121.663 53.7475 121.99 54.0738 122.316C54.3693 122.71 54.7633 123.005 55.1573 123.301C56.3392 124.187 57.6197 125.074 59.0971 125.566C59.4911 125.763 59.8851 125.862 60.3775 125.96C60.7118 126.094 61.0915 126.137 61.4857 126.181C61.6723 126.203 61.8621 126.224 62.052 126.256C62.2982 126.256 62.5198 126.305 62.7414 126.354C62.963 126.403 63.1847 126.453 63.4309 126.453C63.6771 126.453 63.8987 126.428 64.1204 126.403C64.342 126.379 64.5636 126.354 64.8098 126.354L65.0068 126.453C65.0561 126.453 65.1053 126.428 65.1546 126.403Z"
          fill="#FFFFFF"
          fill-opacity="0.8"/>
</svg>
