<svg width="13" height="13" viewBox="0 0 134 134" fill="none" xmlns="http://www.w3.org/2000/svg">
<path fill-rule="evenodd" clip-rule="evenodd" d="M65.3257 0.0232658C60.8934 0.0232658 57.3476 3.56909 57.3476 8.00138C57.3476 12.4337 60.8934 15.9795 65.3257 15.9795C69.758 15.9795 73.3038 12.4337 73.3038 8.00138C73.3038 3.56909 69.758 0.0232658 65.3257 0.0232658ZM82.9565 10.1682C78.5242 10.1682 74.9783 13.7141 74.9783 18.1464C74.9783 22.5786 78.5242 26.1245 82.9565 26.1245C87.3887 26.1245 90.9346 22.5786 90.9346 18.1464C90.9346 13.7141 87.3887 10.1682 82.9565 10.1682ZM92.6088 28.2914C92.6088 23.8591 96.1547 20.3133 100.587 20.3133C105.019 20.3133 108.565 23.8591 108.565 28.2914C108.565 32.7237 105.019 36.2695 100.587 36.2695C96.1547 36.2695 92.6088 32.7237 92.6088 28.2914ZM118.218 46.513C122.65 46.513 126.196 42.9672 126.196 38.5349C126.196 34.1026 122.65 30.5568 118.218 30.5568C113.785 30.5568 110.24 34.1026 110.24 38.5349C110.24 42.8687 113.785 46.513 118.218 46.513ZM57.3476 28.2914C57.3476 23.8591 60.8934 20.3133 65.3257 20.3133C69.758 20.3133 73.3038 23.8591 73.3038 28.2914C73.3038 32.7237 69.758 36.2695 65.3257 36.2695C60.8934 36.2695 57.3476 32.7237 57.3476 28.2914ZM82.9565 30.4583C78.5242 30.4583 74.9783 34.0041 74.9783 38.4364C74.9783 42.8687 78.5242 46.4145 82.9565 46.4145C87.3887 46.4145 90.9346 42.8687 90.9346 38.4364C90.9346 34.0041 87.3887 30.4583 82.9565 30.4583ZM92.6088 48.5814C92.6088 44.1491 96.1547 40.6033 100.587 40.6033C105.019 40.6033 108.565 44.1491 108.565 48.5814C108.565 53.0137 105.019 56.5595 100.587 56.5595C96.1547 56.5595 92.6088 53.0137 92.6088 48.5814ZM118.218 50.7483C113.785 50.7483 110.24 54.2941 110.24 58.7264C110.24 63.1587 113.785 66.7045 118.218 66.7045C122.65 66.7045 126.196 63.1587 126.196 58.7264C126.196 54.2941 122.65 50.7483 118.218 50.7483ZM57.3476 48.5814C57.3476 44.1491 60.8934 40.6033 65.3257 40.6033C69.758 40.6033 73.3038 44.1491 73.3038 48.5814C73.3038 53.0137 69.758 56.5595 65.3257 56.5595C60.8934 56.5595 57.3476 53.0137 57.3476 48.5814ZM82.9565 50.7483C78.5242 50.7483 74.9783 54.2941 74.9783 58.7264C74.9783 63.1587 78.5242 66.7045 82.9565 66.7045C87.3887 66.7045 90.9346 63.1587 90.9346 58.7264C90.9346 54.2941 87.3887 50.7483 82.9565 50.7483ZM92.6088 68.8714C92.6088 64.4391 96.1547 60.8932 100.587 60.8932C105.019 60.8932 108.565 64.4391 108.565 68.8714C108.565 73.3036 105.019 76.8495 100.587 76.8495C96.1547 76.8495 92.6088 73.3036 92.6088 68.8714ZM118.218 71.0384C113.785 71.0384 110.24 74.5842 110.24 79.0165C110.24 83.4487 113.785 86.9946 118.218 86.9946C122.65 86.9946 126.196 83.4487 126.196 79.0165C126.196 74.5842 122.65 71.0384 118.218 71.0384ZM57.3476 68.8714C57.3476 64.4391 60.8934 60.8932 65.3257 60.8932C69.758 60.8932 73.3038 64.4391 73.3038 68.8714C73.3038 73.3036 69.758 76.8495 65.3257 76.8495C60.8934 76.8495 57.3476 73.3036 57.3476 68.8714ZM82.9565 71.0384C78.5242 71.0384 74.9783 74.5842 74.9783 79.0165C74.9783 83.4487 78.5242 86.9946 82.9565 86.9946C87.3887 86.9946 90.9346 83.4487 90.9346 79.0165C90.9346 74.5842 87.3887 71.0384 82.9565 71.0384ZM92.6088 89.1614C92.6088 84.7292 96.1547 81.1833 100.587 81.1833C105.019 81.1833 108.565 84.7292 108.565 89.1614C108.565 93.5937 105.019 97.1396 100.587 97.1396C96.1547 97.1396 92.6088 93.5937 92.6088 89.1614ZM118.218 91.3283C113.785 91.3283 110.24 94.8741 110.24 99.3064C110.24 103.739 113.785 107.285 118.218 107.285C122.65 107.285 126.196 103.739 126.196 99.3064C126.196 94.8741 122.65 91.3283 118.218 91.3283ZM80.6909 114.869C81.3804 114.475 82.1684 114.278 82.9563 114.278C85.9112 114.278 88.2751 116.641 88.4721 119.301C88.4721 122.354 86.0097 124.718 83.0548 124.718C80.1985 124.718 77.9331 122.453 77.7361 119.695H77.6376C77.4086 119.161 77.1204 118.745 76.819 118.309C76.7315 118.183 76.6428 118.055 76.5541 117.922C76.2587 117.429 75.8647 117.035 75.4707 116.641C74.2888 115.558 72.9098 114.672 71.3339 114.278C71.0877 114.228 70.8414 114.204 70.5952 114.179L70.595 114.179C70.3488 114.154 70.1026 114.13 69.8565 114.081C69.6453 114.081 69.4625 114.052 69.2928 114.026L69.2927 114.026C69.1457 114.003 69.0086 113.982 68.8715 113.982C68.6745 113.982 68.4775 114.007 68.2805 114.031C68.0836 114.056 67.8866 114.081 67.6896 114.081H67.5911C66.9016 114.376 66.1137 114.672 65.2272 114.672C62.3708 114.672 60.1054 112.505 59.9085 109.648H59.81C59.5145 109.057 59.1205 108.466 58.7265 107.974C58.431 107.481 58.037 107.087 57.6431 106.693C56.4611 105.512 55.0822 104.625 53.5063 104.231C53.26 104.182 53.0138 104.157 52.7675 104.133C52.5213 104.108 52.2751 104.083 52.0288 104.034C51.8811 104.034 51.7087 104.009 51.5364 103.985C51.364 103.96 51.1916 103.936 51.0439 103.936C50.8469 103.936 50.6499 103.96 50.4529 103.985C50.2559 104.009 50.0589 104.034 49.8619 104.034H49.7634C48.9755 104.428 48.286 104.625 47.3996 104.625C44.5432 104.625 42.1793 102.261 42.0808 99.3063C41.8838 98.7154 41.4899 98.2229 41.0959 97.7304C40.8004 97.3365 40.4065 96.9425 40.0125 96.5486L40.0124 96.5485C38.8305 95.465 37.4515 94.5786 35.8756 94.1846C35.6294 94.1353 35.3831 94.1107 35.1369 94.0861C34.8907 94.0615 34.6444 94.0368 34.3982 93.9876C34.2505 93.9876 34.0781 93.963 33.9057 93.9384C33.7334 93.9137 33.561 93.8891 33.4132 93.8891C33.2655 93.8891 33.0685 93.9137 32.8715 93.9384C32.6745 93.963 32.4775 93.9876 32.3298 93.9876H32.2313C31.5418 94.2831 30.7539 94.5786 29.8674 94.5786C26.8141 94.5786 24.4502 92.1162 24.4502 89.1613C24.4502 87.3884 25.4351 85.8125 26.8141 84.8275V84.729C27.1303 84.3338 27.383 83.8117 27.6233 83.3154L27.6234 83.315L27.6236 83.3146C27.6826 83.1928 27.7408 83.0725 27.799 82.9561C27.996 82.5622 28.193 82.0697 28.2915 81.5772C28.4885 80.7892 28.6855 80.0013 28.6855 79.1148C28.6855 78.2284 28.4885 77.4404 28.2915 76.6524C28.2155 76.2723 28.0807 75.9508 27.9326 75.5973C27.8888 75.493 27.8439 75.3858 27.799 75.2735C27.5035 74.6825 27.208 74.0916 26.8141 73.5006V73.4021C25.4351 72.4171 24.4502 70.9397 24.4502 69.0683C24.4502 66.015 26.8141 63.6511 29.8674 63.6511C32.9208 63.6511 35.2847 66.1135 35.2847 69.0683C35.2847 70.8412 34.2997 72.4171 32.9208 73.4021V73.5991C32.6409 73.9489 32.4605 74.3484 32.2735 74.7623C32.1973 74.9311 32.1199 75.1023 32.0343 75.2735C31.7388 75.766 31.5418 76.2585 31.4433 76.7509C31.2464 77.5389 31.0494 78.3269 31.0494 79.2133C31.0494 79.9217 31.2882 80.63 31.5511 81.41C31.5806 81.4976 31.6105 81.5862 31.6403 81.6757C31.7717 82.0697 31.903 82.3761 32.0343 82.6825C32.1 82.8357 32.1656 82.989 32.2313 83.1531C32.2964 83.2834 32.3616 83.4164 32.4272 83.5502L32.4274 83.5507C32.7584 84.2265 33.1008 84.9254 33.5117 85.4185C34.2012 86.108 34.6937 86.8959 34.9892 87.8809H35.0877C35.4816 88.6688 35.9741 89.4568 36.4666 90.2448C36.7621 90.6388 37.1561 91.0327 37.55 91.4267C38.732 92.6087 40.1109 93.6921 41.6868 94.1846C42.009 94.3134 42.3732 94.358 42.7245 94.401C42.9103 94.4237 43.0924 94.446 43.2628 94.4801C43.5583 94.5786 43.8537 94.6771 44.1492 94.6771H44.1493C44.5433 94.6771 44.9372 94.6771 45.3312 94.5786C46.0206 94.2831 46.8086 94.0861 47.5966 94.0861C50.4529 94.0861 52.7183 96.253 52.9153 99.0109H53.0138C53.2428 99.5452 53.5309 99.9612 53.8324 100.396C53.9199 100.523 54.0086 100.651 54.0972 100.784C54.3927 101.276 54.7867 101.67 55.1806 102.064L55.1807 102.064C56.3626 103.148 57.7416 104.034 59.3175 104.428C59.5637 104.477 59.81 104.502 60.0562 104.527C60.3024 104.551 60.5487 104.576 60.7949 104.625L60.795 104.625C61.0905 104.724 61.3859 104.822 61.7799 104.822C62.2723 104.822 62.6663 104.822 63.0603 104.724C63.7498 104.33 64.5377 104.133 65.3257 104.133C68.1821 104.133 70.4474 106.299 70.6444 109.057H70.7429C70.9719 109.592 71.26 110.008 71.5615 110.443C71.649 110.569 71.7377 110.697 71.8264 110.83C72.1219 111.323 72.5158 111.717 72.9098 112.111C74.0918 113.293 75.4707 114.179 77.0466 114.573C77.2928 114.622 77.5389 114.647 77.7851 114.672L77.7853 114.672C78.0316 114.696 78.2778 114.721 78.524 114.77C78.8195 114.869 79.115 114.967 79.509 114.967C79.903 114.967 80.297 114.967 80.6909 114.869ZM30.0644 53.9986C33.0563 53.9986 35.4816 51.5732 35.4816 48.5814C35.4816 45.5895 33.0563 43.1641 30.0644 43.1641C27.0725 43.1641 24.6472 45.5895 24.6472 48.5814C24.6472 51.5732 27.0725 53.9986 30.0644 53.9986ZM35.4816 28.2914C35.4816 31.3448 33.0193 33.7086 30.0644 33.7086C27.0111 33.7086 24.6472 31.4433 24.6472 28.3899C24.6472 25.3366 27.1095 22.9727 30.0644 22.9727C33.0193 22.9727 35.4816 25.2381 35.4816 28.2914ZM100.587 102.754C99.602 102.754 98.7156 102.951 97.9276 103.345C97.2381 103.64 96.4502 103.837 95.6622 103.837C95.5637 103.837 95.4899 103.813 95.416 103.788C95.3421 103.763 95.2682 103.739 95.1697 103.739C93.2983 103.542 91.7224 102.557 90.7375 101.079C90.245 100.291 89.851 99.5034 89.7525 98.5185L89.654 98.42C89.1615 95.1697 86.5022 92.7073 83.1533 92.7073C82.2669 92.7073 81.4789 92.9043 80.6909 93.1997C79.903 93.5937 79.115 93.6922 78.2286 93.6922C78.1301 93.6922 78.0316 93.6676 77.9331 93.643C77.8346 93.6183 77.7361 93.5937 77.6376 93.5937C75.7662 93.3967 74.1903 92.4118 73.2053 90.9344C72.6143 90.1464 72.2204 89.1614 72.1219 88.1765L71.9249 88.078C71.3339 84.9261 68.773 82.5623 65.4242 82.5623C64.6362 82.5623 63.8483 82.7593 63.1588 83.0547L63.0603 82.9562C62.2723 83.3502 61.3859 83.5472 60.4009 83.5472C60.3024 83.5472 60.2286 83.5226 60.1547 83.498C60.0808 83.4733 60.007 83.4487 59.9085 83.4487C58.037 83.2517 56.4611 82.2668 55.3777 80.7893C54.7867 79.9029 54.3927 79.0164 54.2942 77.933L54.0972 77.8345C53.8018 76.2586 52.9153 74.8796 51.6349 73.8947V73.6977C50.9454 73.1067 50.3544 72.4172 49.9604 71.6293C49.5665 70.8413 49.3695 69.9549 49.3695 69.0684C49.3695 68.182 49.5665 67.2955 49.9604 66.5075C50.3544 65.7196 50.9454 64.9316 51.6349 64.3406V64.0452C53.2108 62.8632 54.3927 60.9918 54.3927 58.8249C54.3927 56.658 53.3093 54.7866 51.6349 53.6047V53.4077C50.9454 52.8167 50.3544 52.1272 49.9604 51.2408C49.5665 50.4528 49.3695 49.5664 49.3695 48.6799C49.3695 47.7935 49.5665 46.907 49.9604 46.119C50.3544 45.3311 50.9454 44.5431 51.6349 43.9521V43.7551C53.2108 42.5732 54.3927 40.7018 54.3927 38.5349C54.3927 34.7921 51.4379 31.8372 47.6951 31.8372C43.9522 31.8372 40.9974 34.7921 40.9974 38.5349C40.9974 40.7018 42.0808 42.5732 43.7552 43.7551V43.9521C44.4447 44.5431 45.0357 45.2326 45.4297 46.119C45.8236 46.907 46.0206 47.7935 46.0206 48.6799C46.0206 49.5664 45.8236 50.4528 45.4297 51.2408C45.0357 52.0287 44.4447 52.8167 43.7552 53.4077V53.6047C42.1793 54.7866 40.9974 56.658 40.9974 58.8249C40.9974 60.9918 42.0808 62.8632 43.7552 64.0452V64.2421C44.4447 64.8331 45.0357 65.5226 45.4297 66.409C45.8236 67.197 46.0206 68.0835 46.0206 68.9699C46.0206 69.8564 45.8236 70.7428 45.4297 71.5308C45.0357 72.3188 44.4447 73.1067 43.7552 73.6977V73.8947C42.1793 75.0766 40.9974 76.948 40.9974 79.1149C40.9974 82.8577 43.9522 85.8126 47.6951 85.8126C48.7785 85.8126 49.8619 85.4186 50.7484 84.9261L50.8469 85.0246C51.4379 84.8277 52.0288 84.7292 52.6198 84.7292C52.7352 84.7292 52.8506 84.763 52.9462 84.791C53.0138 84.8107 53.0715 84.8276 53.1123 84.8276C54.9837 85.0246 56.5596 86.0096 57.5446 87.3885C57.9386 87.9795 58.3325 88.669 58.431 89.4569L58.5295 89.5554C58.7265 93.1012 61.5829 95.8591 65.1287 95.8591C66.2121 95.8591 67.1971 95.5636 68.0836 95.0711L68.1821 95.1697C68.773 94.9727 69.4625 94.8742 70.0535 94.8742C70.152 94.8742 70.2258 94.8988 70.2997 94.9234C70.3736 94.948 70.4474 94.9727 70.5459 94.9727C72.4173 95.1697 74.0918 96.1546 75.0767 97.632C75.5692 98.3215 75.8647 99.011 76.0617 99.7989L76.1602 99.8974C76.4557 103.345 79.2135 106.004 82.7593 106.004C83.7443 106.004 84.7293 105.709 85.5172 105.315H85.6157C86.3052 105.019 86.9946 104.921 87.7826 104.921C87.8811 104.921 87.955 104.945 88.0288 104.97C88.1027 104.995 88.1766 105.019 88.2751 105.019C90.1465 105.216 91.7224 106.201 92.7074 107.679C93.1998 108.368 93.5938 109.156 93.6923 110.042L93.7908 110.141C94.1848 113.49 96.9427 116.051 100.291 116.051C104.034 116.051 106.989 113.096 106.989 109.353C107.285 105.807 104.231 102.754 100.587 102.754ZM54.3925 18.1464C54.3925 21.8454 51.3938 24.8441 47.6948 24.8441C43.9958 24.8441 40.9971 21.8454 40.9971 18.1464C40.9971 14.4474 43.9958 11.4487 47.6948 11.4487C51.3938 11.4487 54.3925 14.4474 54.3925 18.1464ZM12.4336 83.0547C14.6005 83.0547 16.4719 81.2818 16.4719 79.0164C16.4719 76.751 14.699 74.9781 12.4336 74.9781C10.1682 74.9781 8.39532 76.751 8.39532 79.0164C8.39532 81.2818 10.1682 83.0547 12.4336 83.0547ZM16.4719 58.7265C16.4719 60.9918 14.6005 62.7648 12.4336 62.7648C10.1682 62.7648 8.39532 60.8933 8.39532 58.7265C8.39532 56.5596 10.1682 54.6881 12.4336 54.6881C14.699 54.6881 16.4719 56.4611 16.4719 58.7265ZM12.4336 42.4747C14.6005 42.4747 16.4719 40.7018 16.4719 38.4364C16.4719 36.171 14.699 34.3981 12.4336 34.3981C10.1682 34.3981 8.39532 36.2695 8.39532 38.4364C8.39532 40.6033 10.1682 42.4747 12.4336 42.4747ZM65.1778 125.752C65.2271 125.728 65.2763 125.703 65.3256 125.703C67.4924 125.703 69.0684 127.673 69.0684 129.938C69.0684 132.204 67.197 133.977 65.0301 133.977C63.6511 133.977 62.5677 133.09 61.8782 131.908L61.3857 131.613C60.9918 130.628 60.4008 129.84 59.8098 129.052C59.5143 128.559 59.1204 128.165 58.7264 127.772L58.7264 127.771C58.4309 127.377 58.0369 127.082 57.6429 126.787C56.461 125.9 55.1805 125.014 53.7031 124.521C53.3091 124.324 52.9152 124.226 52.4227 124.127C52.0884 123.993 51.7087 123.95 51.3145 123.906C51.1279 123.885 50.9381 123.863 50.7483 123.832C50.502 123.832 50.2804 123.782 50.0588 123.733C49.8372 123.684 49.6156 123.635 49.3693 123.635C49.1231 123.635 48.9015 123.659 48.6799 123.684C48.4582 123.709 48.2366 123.733 47.9904 123.733L47.7934 123.635C47.7442 123.635 47.6949 123.659 47.6457 123.684C47.5964 123.709 47.5472 123.733 47.4979 123.733C46.119 123.733 45.0355 122.748 44.3461 121.566L43.8536 121.271C43.5581 120.384 42.9671 119.596 42.3762 118.808C42.3085 118.724 42.2438 118.642 42.181 118.563C41.8779 118.181 41.6191 117.854 41.2927 117.528C40.9972 117.134 40.6033 116.839 40.2093 116.543C39.0273 115.657 37.7469 114.77 36.2695 114.278C35.8755 114.081 35.4815 113.982 34.989 113.884C34.6547 113.75 34.2751 113.707 33.8809 113.662C33.6943 113.641 33.5044 113.62 33.3146 113.588C33.0684 113.588 32.8468 113.539 32.6251 113.49C32.4035 113.44 32.1819 113.391 31.9357 113.391C31.7387 113.391 31.5171 113.416 31.2955 113.44C31.0738 113.465 30.8522 113.49 30.6552 113.49L30.4582 113.391C30.409 113.391 30.3598 113.416 30.3105 113.44C30.2613 113.465 30.212 113.49 30.1628 113.49C28.6853 113.49 27.6019 112.505 26.9124 111.323L26.5184 111.027C26.1245 110.141 25.5335 109.353 24.9426 108.565L24.9425 108.565C24.8749 108.48 24.8102 108.399 24.7474 108.32C24.4443 107.937 24.1855 107.611 23.8591 107.284C23.5636 106.89 23.1696 106.595 22.7756 106.3C21.5937 105.315 20.3132 104.527 18.8358 104.034C18.4418 103.837 18.0479 103.739 17.5554 103.64C17.2211 103.506 16.8414 103.463 16.4472 103.419C16.2606 103.398 16.0708 103.376 15.881 103.345C15.6347 103.345 15.4131 103.295 15.1915 103.246C14.9699 103.197 14.7483 103.148 14.502 103.148C14.305 103.148 14.0834 103.172 13.8618 103.197C13.6402 103.222 13.4186 103.246 13.2216 103.246L13.0246 103.148C12.9493 103.185 12.8885 103.223 12.8365 103.255C12.7524 103.307 12.6915 103.345 12.6306 103.345C10.3652 103.345 8.59231 101.572 8.59231 99.3064C8.59231 97.041 10.4637 95.2681 12.6306 95.2681C14.0095 95.2681 15.093 96.1545 15.7825 97.238L16.1764 97.435C16.5704 98.4199 17.1614 99.3064 17.8509 100.193C18.1463 100.587 18.5403 100.981 18.9343 101.375C19.2298 101.67 19.6238 102.064 20.0178 102.36C21.1997 103.345 22.4801 104.133 23.9576 104.625C24.2038 104.674 24.4255 104.724 24.6471 104.773C24.8687 104.822 25.0903 104.871 25.3365 104.921C25.739 105.055 26.0959 105.098 26.4693 105.142C26.6441 105.163 26.8225 105.185 27.0109 105.216C27.2572 105.216 27.4788 105.265 27.7004 105.315C27.922 105.364 28.1436 105.413 28.3898 105.413C28.9808 105.413 29.4733 105.413 29.9658 105.315L30.0643 105.413C30.1135 105.413 30.1381 105.388 30.1628 105.364C30.1874 105.339 30.212 105.315 30.2613 105.315C31.6402 105.315 32.7236 106.201 33.4131 107.383L33.9056 107.678C34.2996 108.565 34.8905 109.451 35.4815 110.239C35.5491 110.324 35.6138 110.405 35.6765 110.485C35.9798 110.867 36.2385 111.193 36.565 111.52C36.8604 111.815 37.2544 112.209 37.6484 112.505C38.8303 113.391 40.1108 114.278 41.5882 114.77C41.9822 114.967 42.3762 115.066 42.8686 115.164C43.2712 115.298 43.628 115.341 44.0014 115.386C44.1762 115.407 44.3546 115.428 44.5431 115.46C44.7893 115.46 45.0355 115.509 45.2818 115.558C45.528 115.607 45.7743 115.657 46.0205 115.657C46.513 115.657 47.0054 115.657 47.4979 115.558L47.5964 115.657C47.6457 115.657 47.6949 115.632 47.7442 115.607C47.7934 115.583 47.8427 115.558 47.8919 115.558C49.2708 115.558 50.3543 116.445 51.0437 117.626L51.5362 117.922C51.8317 118.808 52.4227 119.596 53.0137 120.384C53.0813 120.469 53.146 120.55 53.2088 120.63C53.512 121.012 53.7707 121.338 54.0971 121.665C54.3926 122.059 54.7866 122.354 55.1805 122.65C56.3625 123.536 57.6429 124.423 59.1204 124.915C59.5143 125.112 59.9083 125.211 60.4008 125.309C60.7351 125.443 61.1147 125.486 61.509 125.53C61.6955 125.551 61.8854 125.573 62.0752 125.605C62.3214 125.605 62.5431 125.654 62.7647 125.703C62.9863 125.752 63.2079 125.802 63.4541 125.802C63.7004 125.802 63.922 125.777 64.1436 125.752C64.3652 125.728 64.5868 125.703 64.8331 125.703L65.0301 125.802C65.0793 125.802 65.1286 125.777 65.1778 125.752Z" fill="#1A1A1A"/>
</svg>
