<svg width="13" height="13" viewBox="0 0 12 12" fill="none" xmlns="http://www.w3.org/2000/svg">
    <path fill-rule="evenodd" clip-rule="evenodd"
          d="M0.23439 5.73035C0.23439 6.01512 0.465243 6.24597 0.750015 6.24597C1.03479 6.24597 1.26564 6.01512 1.26564 5.73035C1.26564 3.14367 3.3725 1.04285 5.97627 1.04285C7.7407 1.04285 9.2784 2.00794 10.0856 3.43683L8.7172 3.4446C8.43244 3.44622 8.2029 3.67838 8.20452 3.96315C8.20613 4.24792 8.4383 4.47746 8.72306 4.47584L11.1415 4.46209C11.4233 4.46049 11.6515 4.23303 11.6542 3.95129L11.6769 1.52391C11.6795 1.23915 11.4508 1.00615 11.1661 1.00349C10.8813 1.00083 10.6483 1.22951 10.6457 1.51427L10.6375 2.39029C9.59497 0.949614 7.89553 0.0115967 5.97627 0.0115967C2.80728 0.0115967 0.23439 2.56981 0.23439 5.73035ZM0.32318 10.4758C0.320518 10.7606 0.549204 10.9936 0.833963 10.9963C1.11872 10.9989 1.35172 10.7702 1.35439 10.4855L1.36257 9.60947C2.40507 11.0501 4.10452 11.9882 6.02377 11.9882C9.19277 11.9882 11.7657 9.42994 11.7657 6.26941C11.7657 5.98464 11.5348 5.75378 11.25 5.75378C10.9653 5.75378 10.7344 5.98464 10.7344 6.26941C10.7344 8.85609 8.62754 10.9569 6.02377 10.9569C4.25935 10.9569 2.72165 9.99181 1.91444 8.56293L3.28284 8.55515C3.56761 8.55353 3.79715 8.32137 3.79553 8.0366C3.79391 7.75184 3.56175 7.5223 3.27698 7.52392L0.858541 7.53766C0.576795 7.53927 0.348502 7.76672 0.345869 8.04846L0.32318 10.4758Z"
          fill="#303030"/>
</svg>
