<svg width="13" height="13" viewBox="0 0 12 12" fill="none" xmlns="http://www.w3.org/2000/svg">
    <path fill-rule="evenodd" clip-rule="evenodd"
          d="M8.30468 0.492187C8.30468 0.751071 8.09481 0.960937 7.83593 0.960938L4.16405 0.960938C3.90517 0.960938 3.6953 0.751071 3.6953 0.492188C3.6953 0.233304 3.90517 0.0234377 4.16405 0.0234377L7.83593 0.0234375C8.09481 0.0234374 8.30468 0.233304 8.30468 0.492187ZM1.24741 8.08447V2.79688H0.492188C0.233304 2.79688 0.0234375 2.58701 0.0234375 2.32813C0.0234375 2.06924 0.233304 1.85938 0.492188 1.85938H1.24741H10.7526H11.5078C11.7667 1.85938 11.9766 2.06924 11.9766 2.32813C11.9766 2.58701 11.7667 2.79688 11.5078 2.79688H10.7526V8.08448C10.7526 10.234 9.01007 11.9766 6.86053 11.9766H5.13949C2.98995 11.9766 1.24741 10.234 1.24741 8.08447ZM9.81511 2.79688H2.18491V8.08447C2.18491 9.71625 3.50772 11.0391 5.13949 11.0391H6.86053C8.4923 11.0391 9.81511 9.71625 9.81511 8.08448V2.79688ZM4.77605 4.3073C5.03494 4.3073 5.2448 4.51716 5.2448 4.77605V8.44792C5.2448 8.70681 5.03494 8.91667 4.77605 8.91667C4.51717 8.91667 4.3073 8.70681 4.3073 8.44792V4.77605C4.3073 4.51716 4.51717 4.3073 4.77605 4.3073ZM7.69272 4.77605C7.69272 4.51716 7.48285 4.3073 7.22397 4.3073C6.96509 4.3073 6.75522 4.51716 6.75522 4.77605V8.44792C6.75522 8.70681 6.96509 8.91667 7.22397 8.91667C7.48285 8.91667 7.69272 8.70681 7.69272 8.44792V4.77605Z"
          fill="#303030"/>
</svg>
