<svg width="13" height="13" viewBox="0 0 12 12" fill="none" xmlns="http://www.w3.org/2000/svg">
    <g clip-path="url(#clip0_79941_273)">
        <path fill-rule="evenodd" clip-rule="evenodd"
              d="M5.98326 1.44591C6.03667 1.42602 6.0955 1.42628 6.14873 1.44664L10.6452 3.16579L6.16107 5.19286C6.10043 5.22027 6.031 5.22061 5.9701 5.1938L1.3632 3.16593L5.98326 1.44591ZM6.48354 0.570958C6.21736 0.469192 5.92323 0.467899 5.65617 0.567323L0.49489 2.48883C-0.096729 2.70909 -0.12086 3.53698 0.456934 3.79131L5.5924 6.05185C5.89692 6.1859 6.24407 6.18418 6.54724 6.04713L11.5438 3.78841C12.1133 3.53098 12.089 2.71413 11.5053 2.49095L6.48354 0.570958ZM6.72655 9.16407C6.44178 9.16407 6.21093 8.93322 6.21093 8.64844C6.21093 7.05505 7.50562 5.76563 9.09989 5.76563C9.75908 5.76563 10.3666 5.98599 10.8526 6.3567C10.9276 6.16165 11.1176 6.02404 11.3389 6.02611C11.6236 6.02877 11.8523 6.26177 11.8497 6.54653L11.8393 7.65294C11.8367 7.93468 11.6084 8.16214 11.3266 8.16374L10.2243 8.17C9.93955 8.17162 9.70739 7.94209 9.70577 7.65732C9.70423 7.38607 9.91242 7.16254 10.1783 7.14054C9.87417 6.92411 9.5019 6.79688 9.09989 6.79688C8.07264 6.79688 7.24218 7.62711 7.24218 8.64844C7.24218 8.93322 7.01133 9.16407 6.72655 9.16407ZM6.87397 11.6711C6.58922 11.6685 6.36053 11.4355 6.36319 11.1507L6.37353 10.0443C6.37617 9.76258 6.60446 9.53512 6.8862 9.53352L7.98854 9.52726C8.2733 9.52564 8.50547 9.75517 8.50708 10.0399C8.5087 10.3247 8.27917 10.5569 7.9944 10.5585L7.945 10.5588C8.2639 10.8153 8.66954 10.9688 9.11103 10.9688C10.1383 10.9688 10.9687 10.1385 10.9687 9.11719C10.9687 8.83242 11.1996 8.60157 11.4844 8.60157C11.7691 8.60157 12 8.83242 12 9.11719C12 10.7106 10.7053 12 9.11103 12C8.44213 12 7.82643 11.7731 7.3369 11.3925C7.25031 11.5596 7.07505 11.673 6.87397 11.6711ZM0.0423248 5.78369C0.155323 5.5223 0.458827 5.402 0.72022 5.515L5.22022 7.46031C5.48161 7.57331 5.60191 7.87681 5.48891 8.13821C5.37592 8.3996 5.07241 8.5199 4.81102 8.4069L0.311018 6.46159C0.0496247 6.34859 -0.0706733 6.04509 0.0423248 5.78369ZM0.72022 8.17514C0.458827 8.06215 0.155323 8.18244 0.0423248 8.44384C-0.0706733 8.70523 0.0496247 9.00873 0.311018 9.12173L4.81102 11.067C5.07241 11.18 5.37592 11.0597 5.48891 10.7984C5.60191 10.537 5.48161 10.2335 5.22022 10.1205L0.72022 8.17514Z"
              fill="#FFFFFF"/>
    </g>
    <defs>
        <clipPath id="clip0_79941_273">
            <rect width="13" height="13" fill="white"/>
        </clipPath>
    </defs>
</svg>
